<?xml version="1.0" encoding="utf-8"?>
<!-- Generator: Adobe Illustrator 21.0.0, SVG Export Plug-In . SVG Version: 6.00 Build 0)  -->
<svg version="1.1" id="Слой_1" xmlns="http://www.w3.org/2000/svg" xmlns:xlink="http://www.w3.org/1999/xlink" x="0px" y="0px"
	 viewBox="0 0 300 82.7" style="enable-background:new 0 0 300 82.7;" xml:space="preserve">
<style type="text/css">
	.st0{fill:#C0392B;}
	.st1{fill:#D3D3D3;}
</style>
<polygon class="st0" points="35.7,31.2 44,36 54.2,30.2 35.7,19.5 16.8,30.4 16.8,52.2 35.7,63.1 54.6,52.2 54.6,40.2 36.2,40.2 
	36.2,45.7 44.2,45.7 44.7,46.2 35.7,51.4 27,46.4 27,36.3 "/>
<polygon class="st1" points="62.1,36.2 62.1,56.5 61.9,56.6 35.8,71.7 9.5,56.5 9.5,26.1 9.7,26 35.8,11 61.6,25.9 71.1,20.4 
	35.8,0 0,20.7 0,62 35.8,82.7 71.6,62 71.6,30.7 "/>
<g>
	<g>
		<path class="st1" d="M112.8,36.5H89.9v19.9h22.9v-7h-12v-5.4h19.1V55c0,2.9-0.5,4.8-1.6,5.9c-1.1,1-3.1,1.6-6.2,1.6H90.4
			c-3.1,0-5.1-0.5-6.2-1.6c-1.1-1-1.6-3-1.6-5.9V38.4c0-2.9,0.5-4.8,1.6-5.9c1.1-1.1,3.1-1.6,6.2-1.6h21.7c3,0,5.1,0.5,6.2,1.6
			c1.1,1,1.6,2.9,1.6,5.6v0.7l-7.1,1.3V36.5z"/>
	</g>
</g>
<g>
	<g>
		<path class="st1" d="M127,62.4V30.9h26.9c2.5,0,4.3,0.5,5.4,1.4c1.1,1,1.7,2.5,1.7,4.7v7.4c0,2.1-0.6,3.7-1.7,4.7
			c-1.1,1-2.9,1.5-5.4,1.5h-4.1l14.6,11.9h-10.5l-12.7-11.9h-6.9v11.9H127z M150.7,36.3h-16.5v8.8h16.5c1.3,0,2.1-0.2,2.6-0.6
			s0.7-1,0.7-2v-3.8c0-0.9-0.2-1.6-0.7-1.9C152.8,36.5,151.9,36.3,150.7,36.3z"/>
		<path class="st1" d="M166.5,62.4l17.8-31.5h7.1l18.1,31.5h-8.2l-3.8-6.9h-20l-3.7,6.9H166.5z M180.6,49.8h13.8L187.6,37
			L180.6,49.8z"/>
		<path class="st1" d="M212.5,62.4V30.9h31.8v5.5h-24.5v8.3h13.3v5.8h-13.3v12H212.5z"/>
		<path class="st1" d="M250.4,62.4V30.9h7.3v31.5H250.4z"/>
		<path class="st1" d="M285.5,36.5v25.9h-7.3V36.5h-14.5v-5.6H300v5.6H285.5z"/>
	</g>
</g>
<g>
	<g>
		<path class="st1" d="M83.5,76.5h-1.4l3.4-8h1.4l3.4,8h-1.4l-0.7-1.7h-4L83.5,76.5z M86,70.2l-1.4,3.4h3.1l-1.4-3.4
			c-0.1-0.2-0.1-0.4-0.2-0.4C86.2,69.8,86.1,70,86,70.2z"/>
		<path class="st1" d="M92.5,68.5h3.4c0.9,0,1.5,0.2,2,0.5c0.5,0.3,0.7,0.8,0.7,1.5c0,0.5-0.1,0.8-0.4,1.1c-0.2,0.3-0.5,0.5-0.9,0.6
			c0.2,0,0.3,0.1,0.4,0.2c0.1,0.1,0.3,0.2,0.4,0.3c0.1,0.1,0.3,0.2,0.4,0.4c0.1,0.1,0.2,0.3,0.2,0.5c0.1,0.2,0.1,0.4,0.1,0.7
			c0,0.4-0.1,0.7-0.2,0.9c-0.1,0.3-0.3,0.5-0.5,0.6c-0.2,0.2-0.4,0.3-0.7,0.4c-0.3,0.1-0.5,0.2-0.8,0.2c-0.3,0-0.5,0.1-0.8,0.1h-3.4
			V68.5z M97.3,70.7c0-0.7-0.5-1.1-1.6-1.1h-1.9v2.2l2.1,0c0.4,0,0.7-0.1,1-0.3C97.2,71.3,97.3,71.1,97.3,70.7z M97.6,74.1
			c0-0.8-0.6-1.2-1.7-1.2h-2.2v2.4h2c0.2,0,0.4,0,0.5,0c0.2,0,0.3,0,0.5-0.1c0.2,0,0.3-0.1,0.4-0.2c0.1-0.1,0.2-0.2,0.3-0.4
			C97.6,74.5,97.6,74.3,97.6,74.1z"/>
		<path class="st1" d="M100.6,68.5h6.6v1.2h-2.6v6.8h-1.3v-6.8h-2.7V68.5z"/>
		<path class="st1" d="M108.8,73.7c-0.1-0.4-0.2-0.8-0.2-1.2c0-0.4,0.1-0.8,0.2-1.2c0.1-0.4,0.3-0.8,0.5-1.1
			c0.2-0.4,0.5-0.7,0.8-0.9c0.3-0.3,0.7-0.5,1.2-0.6c0.5-0.2,1-0.2,1.5-0.2s1.1,0.1,1.5,0.2c0.5,0.2,0.9,0.4,1.2,0.6
			c0.3,0.3,0.6,0.6,0.8,0.9c0.2,0.4,0.4,0.7,0.5,1.1c0.1,0.4,0.2,0.8,0.2,1.2c0,0.4-0.1,0.8-0.2,1.2c-0.1,0.4-0.3,0.8-0.5,1.1
			c-0.2,0.4-0.5,0.7-0.8,0.9c-0.3,0.3-0.7,0.5-1.2,0.6c-0.5,0.2-1,0.2-1.5,0.2s-1.1-0.1-1.5-0.2c-0.5-0.2-0.9-0.4-1.2-0.6
			c-0.3-0.3-0.6-0.6-0.8-0.9C109.1,74.5,108.9,74.1,108.8,73.7z M115.6,73.6c0.1-0.3,0.2-0.7,0.2-1.1c0-0.4-0.1-0.8-0.2-1.1
			c-0.1-0.3-0.3-0.7-0.5-0.9c-0.2-0.3-0.5-0.5-0.9-0.7c-0.4-0.2-0.8-0.2-1.3-0.2s-0.9,0.1-1.3,0.2c-0.4,0.2-0.7,0.4-0.9,0.7
			c-0.2,0.3-0.4,0.6-0.5,0.9c-0.1,0.3-0.2,0.7-0.2,1.1c0,0.4,0.1,0.8,0.2,1.1c0.1,0.3,0.3,0.7,0.5,0.9c0.2,0.3,0.5,0.5,0.9,0.7
			c0.4,0.2,0.8,0.2,1.3,0.2s0.9-0.1,1.3-0.2c0.4-0.2,0.7-0.4,0.9-0.7C115.3,74.2,115.4,73.9,115.6,73.6z"/>
		<path class="st1" d="M119.1,72.5c0-0.6,0.1-1.1,0.2-1.5c0.2-0.5,0.4-0.9,0.6-1.2c0.3-0.3,0.6-0.6,1-0.8c0.4-0.2,0.7-0.4,1.2-0.5
			c0.4-0.1,0.8-0.2,1.3-0.2c0.8,0,1.6,0.2,2.3,0.5v1.3c-0.6-0.4-1.2-0.6-2.1-0.6c-0.3,0-0.6,0-0.9,0.1c-0.3,0.1-0.6,0.2-0.9,0.3
			c-0.3,0.2-0.5,0.4-0.7,0.6c-0.2,0.2-0.4,0.5-0.5,0.9c-0.1,0.3-0.2,0.7-0.2,1.1c0,0.5,0.1,0.9,0.3,1.3c0.2,0.4,0.4,0.7,0.7,0.9
			c0.3,0.2,0.6,0.4,1,0.5c0.4,0.1,0.7,0.2,1.1,0.2c0.9,0,1.6-0.2,2.1-0.6v1.3c-0.7,0.4-1.5,0.5-2.3,0.5c-0.4,0-0.8-0.1-1.2-0.2
			c-0.4-0.1-0.8-0.3-1.2-0.5c-0.4-0.2-0.7-0.5-1-0.8c-0.3-0.3-0.5-0.7-0.7-1.2C119.2,73.6,119.1,73.1,119.1,72.5z"/>
		<path class="st1" d="M128.3,68.5h5.5v1.2h-4.2v2.2h3.9V73h-3.9v2.3h4.3v1.2h-5.6V68.5z"/>
		<path class="st1" d="M136.6,68.5h2.9c2.3,0,3.4,0.9,3.4,2.6c0,1.8-1.1,2.6-3.4,2.6h-1.6v2.8h-1.3V68.5z M141.4,71.8
			c0.1-0.2,0.2-0.4,0.2-0.7c0-0.3-0.1-0.5-0.2-0.7c-0.1-0.2-0.3-0.3-0.4-0.4c-0.2-0.1-0.4-0.2-0.6-0.2c-0.2,0-0.5-0.1-0.8-0.1h-1.6
			v2.9h1.6c0.3,0,0.6,0,0.8-0.1c0.2,0,0.4-0.1,0.6-0.2C141.1,72.2,141.3,72,141.4,71.8z"/>
		<path class="st1" d="M145.3,68.5h3.4c0.9,0,1.5,0.2,2,0.5c0.5,0.3,0.7,0.8,0.7,1.5c0,0.5-0.1,0.8-0.4,1.1
			c-0.2,0.3-0.5,0.5-0.9,0.6c0.2,0,0.3,0.1,0.4,0.2c0.1,0.1,0.3,0.2,0.4,0.3c0.1,0.1,0.3,0.2,0.4,0.4c0.1,0.1,0.2,0.3,0.2,0.5
			c0.1,0.2,0.1,0.4,0.1,0.7c0,0.4-0.1,0.7-0.2,0.9c-0.1,0.3-0.3,0.5-0.5,0.6c-0.2,0.2-0.4,0.3-0.7,0.4c-0.3,0.1-0.5,0.2-0.8,0.2
			c-0.3,0-0.5,0.1-0.8,0.1h-3.4V68.5z M150.1,70.7c0-0.7-0.5-1.1-1.6-1.1h-1.9v2.2l2.1,0c0.4,0,0.7-0.1,1-0.3
			C150,71.3,150.1,71.1,150.1,70.7z M150.5,74.1c0-0.8-0.6-1.2-1.7-1.2h-2.2v2.4h2c0.2,0,0.4,0,0.5,0c0.2,0,0.3,0,0.5-0.1
			c0.2,0,0.3-0.1,0.4-0.2c0.1-0.1,0.2-0.2,0.3-0.4C150.4,74.5,150.5,74.3,150.5,74.1z"/>
		<path class="st1" d="M161.2,76.5h-1.3v-5c0-0.4,0-0.7,0-0.9l-4.3,5.9h-1.2v-8h1.3v5c0,0.4,0,0.7,0,0.9l4.3-5.9h1.2V76.5z"/>
		<path class="st1" d="M163.8,72.5c0-0.6,0.1-1.1,0.2-1.5c0.2-0.5,0.4-0.9,0.6-1.2c0.3-0.3,0.6-0.6,1-0.8c0.4-0.2,0.7-0.4,1.2-0.5
			c0.4-0.1,0.8-0.2,1.3-0.2c0.8,0,1.6,0.2,2.3,0.5v1.3c-0.6-0.4-1.2-0.6-2.1-0.6c-0.3,0-0.6,0-0.9,0.1c-0.3,0.1-0.6,0.2-0.9,0.3
			c-0.3,0.2-0.5,0.4-0.7,0.6c-0.2,0.2-0.4,0.5-0.5,0.9c-0.1,0.3-0.2,0.7-0.2,1.1c0,0.5,0.1,0.9,0.3,1.3c0.2,0.4,0.4,0.7,0.7,0.9
			c0.3,0.2,0.6,0.4,1,0.5c0.4,0.1,0.7,0.2,1.1,0.2c0.9,0,1.6-0.2,2.1-0.6v1.3c-0.7,0.4-1.5,0.5-2.3,0.5c-0.4,0-0.8-0.1-1.2-0.2
			c-0.4-0.1-0.8-0.3-1.2-0.5c-0.4-0.2-0.7-0.5-1-0.8c-0.3-0.3-0.5-0.7-0.7-1.2C163.9,73.6,163.8,73.1,163.8,72.5z"/>
		<path class="st1" d="M183.7,76.5h-1.3v-5c0-0.4,0-0.7,0-0.9l-4.3,5.9h-1.2v-8h1.3v5c0,0.4,0,0.7,0,0.9l4.3-5.9h1.2V76.5z"/>
		<path class="st1" d="M191.1,76.5h-1.4l3.4-8h1.4l3.4,8h-1.4l-0.7-1.7h-4L191.1,76.5z M193.7,70.2l-1.4,3.4h3.1l-1.4-3.4
			c-0.1-0.2-0.1-0.4-0.2-0.4C193.8,69.8,193.8,70,193.7,70.2z"/>
		<path class="st1" d="M200.1,68.5h3.4c0.9,0,1.5,0.2,2,0.5c0.5,0.3,0.7,0.8,0.7,1.5c0,0.5-0.1,0.8-0.4,1.1
			c-0.2,0.3-0.5,0.5-0.9,0.6c0.2,0,0.3,0.1,0.4,0.2c0.1,0.1,0.3,0.2,0.4,0.3c0.1,0.1,0.3,0.2,0.4,0.4c0.1,0.1,0.2,0.3,0.2,0.5
			c0.1,0.2,0.1,0.4,0.1,0.7c0,0.4-0.1,0.7-0.2,0.9c-0.1,0.3-0.3,0.5-0.5,0.6c-0.2,0.2-0.4,0.3-0.7,0.4c-0.3,0.1-0.5,0.2-0.8,0.2
			c-0.3,0-0.5,0.1-0.8,0.1h-3.4V68.5z M204.9,70.7c0-0.7-0.5-1.1-1.6-1.1h-1.9v2.2l2.1,0c0.4,0,0.7-0.1,1-0.3
			C204.8,71.3,204.9,71.1,204.9,70.7z M205.3,74.1c0-0.8-0.6-1.2-1.7-1.2h-2.2v2.4h2c0.2,0,0.4,0,0.5,0c0.2,0,0.3,0,0.5-0.1
			c0.2,0,0.3-0.1,0.4-0.2c0.1-0.1,0.2-0.2,0.3-0.4C205.2,74.5,205.3,74.3,205.3,74.1z"/>
		<path class="st1" d="M208.2,68.5h6.6v1.2h-2.6v6.8h-1.3v-6.8h-2.7V68.5z"/>
		<path class="st1" d="M216.4,73.7c-0.1-0.4-0.2-0.8-0.2-1.2c0-0.4,0.1-0.8,0.2-1.2c0.1-0.4,0.3-0.8,0.5-1.1
			c0.2-0.4,0.5-0.7,0.8-0.9c0.3-0.3,0.7-0.5,1.2-0.6c0.5-0.2,1-0.2,1.5-0.2c0.5,0,1.1,0.1,1.5,0.2c0.5,0.2,0.9,0.4,1.2,0.6
			c0.3,0.3,0.6,0.6,0.8,0.9c0.2,0.4,0.4,0.7,0.5,1.1c0.1,0.4,0.2,0.8,0.2,1.2c0,0.4-0.1,0.8-0.2,1.2c-0.1,0.4-0.3,0.8-0.5,1.1
			c-0.2,0.4-0.5,0.7-0.8,0.9c-0.3,0.3-0.7,0.5-1.2,0.6c-0.5,0.2-1,0.2-1.5,0.2c-0.5,0-1.1-0.1-1.5-0.2s-0.9-0.4-1.2-0.6
			c-0.3-0.3-0.6-0.6-0.8-0.9C216.7,74.5,216.5,74.1,216.4,73.7z M223.2,73.6c0.1-0.3,0.2-0.7,0.2-1.1c0-0.4-0.1-0.8-0.2-1.1
			c-0.1-0.3-0.3-0.7-0.5-0.9c-0.2-0.3-0.5-0.5-0.9-0.7c-0.4-0.2-0.8-0.2-1.3-0.2c-0.5,0-0.9,0.1-1.3,0.2c-0.4,0.2-0.7,0.4-0.9,0.7
			c-0.2,0.3-0.4,0.6-0.5,0.9c-0.1,0.3-0.2,0.7-0.2,1.1c0,0.4,0.1,0.8,0.2,1.1c0.1,0.3,0.3,0.7,0.5,0.9c0.2,0.3,0.5,0.5,0.9,0.7
			c0.4,0.2,0.8,0.2,1.3,0.2c0.5,0,0.9-0.1,1.3-0.2c0.4-0.2,0.7-0.4,0.9-0.7C222.9,74.2,223.1,73.9,223.2,73.6z"/>
		<path class="st1" d="M232.8,74.3c0,0.3-0.1,0.6-0.2,0.9c-0.1,0.3-0.3,0.5-0.5,0.7c-0.2,0.2-0.5,0.3-0.7,0.4
			c-0.3,0.1-0.6,0.2-0.9,0.2c-0.3,0-0.6,0.1-0.9,0.1c-1,0-2-0.2-2.9-0.5v-1.3c0.8,0.4,1.8,0.6,2.8,0.6c0.3,0,0.5,0,0.7-0.1
			c0.2,0,0.4-0.1,0.6-0.2c0.2-0.1,0.4-0.2,0.5-0.4c0.1-0.2,0.2-0.4,0.2-0.6c0-0.2-0.1-0.4-0.2-0.6c-0.1-0.2-0.2-0.3-0.4-0.4
			c-0.2-0.1-0.4-0.2-0.6-0.2c-0.2,0-0.4-0.1-0.7-0.1h-1.7v-1.2h1.6c0.5,0,0.9-0.1,1.2-0.3c0.3-0.2,0.4-0.5,0.4-0.8
			c0-0.7-0.6-1.1-1.8-1.1c-0.8,0-1.7,0.2-2.5,0.6v-1.3c0.8-0.3,1.7-0.5,2.6-0.5c0.6,0,1.1,0.1,1.6,0.2c0.5,0.2,0.8,0.4,1.1,0.7
			c0.3,0.3,0.4,0.7,0.4,1.2c0,0.4-0.1,0.8-0.4,1.1c-0.2,0.3-0.6,0.5-0.9,0.7c0.2,0,0.4,0.1,0.6,0.2c0.2,0.1,0.4,0.2,0.5,0.4
			c0.2,0.2,0.3,0.4,0.4,0.6C232.7,73.7,232.8,74,232.8,74.3z"/>
		<path class="st1" d="M235.6,76.5h-1.4l3.4-8h1.4l3.4,8h-1.4l-0.7-1.7h-4L235.6,76.5z M238.2,70.2l-1.4,3.4h3.1l-1.4-3.4
			c-0.1-0.2-0.1-0.4-0.2-0.4C238.3,69.8,238.3,70,238.2,70.2z"/>
		<path class="st1" d="M245.9,76.5h-1.3v-8h6.7v8h-1.3v-6.8h-4.1V76.5z"/>
		<path class="st1" d="M260.4,76.5h-1.3v-3c-0.7,0.2-1.5,0.4-2.2,0.4c-0.9,0-1.6-0.2-2.2-0.7c-0.5-0.5-0.8-1.1-0.8-2v-2.6h1.3v2.6
			c0,0.5,0.2,0.9,0.5,1.1c0.3,0.2,0.8,0.4,1.4,0.4c0.6,0,1.3-0.1,1.9-0.4v-3.8h1.3V76.5z"/>
		<path class="st1" d="M264,76.5h-1.4l3.4-8h1.4l3.4,8h-1.4l-0.7-1.7h-4L264,76.5z M266.6,70.2l-1.4,3.4h3.1l-1.4-3.4
			c-0.1-0.2-0.1-0.4-0.2-0.4C266.7,69.8,266.6,70,266.6,70.2z"/>
		<path class="st1" d="M272.2,72.5c0-0.6,0.1-1.1,0.2-1.5c0.2-0.5,0.4-0.9,0.6-1.2c0.3-0.3,0.6-0.6,1-0.8c0.4-0.2,0.7-0.4,1.2-0.5
			c0.4-0.1,0.8-0.2,1.3-0.2c0.8,0,1.6,0.2,2.3,0.5v1.3c-0.6-0.4-1.2-0.6-2.1-0.6c-0.3,0-0.6,0-0.9,0.1c-0.3,0.1-0.6,0.2-0.9,0.3
			c-0.3,0.2-0.5,0.4-0.7,0.6c-0.2,0.2-0.4,0.5-0.5,0.9c-0.1,0.3-0.2,0.7-0.2,1.1c0,0.5,0.1,0.9,0.3,1.3c0.2,0.4,0.4,0.7,0.7,0.9
			c0.3,0.2,0.6,0.4,1,0.5c0.4,0.1,0.7,0.2,1.1,0.2c0.9,0,1.6-0.2,2.1-0.6v1.3c-0.7,0.4-1.5,0.5-2.3,0.5c-0.4,0-0.8-0.1-1.2-0.2
			c-0.4-0.1-0.8-0.3-1.2-0.5c-0.4-0.2-0.7-0.5-1-0.8c-0.3-0.3-0.5-0.7-0.7-1.2C272.2,73.6,272.2,73.1,272.2,72.5z"/>
		<path class="st1" d="M280.5,68.5h6.6v1.2h-2.6v6.8h-1.3v-6.8h-2.7V68.5z"/>
		<path class="st1" d="M296.3,76.5H295v-5c0-0.4,0-0.7,0-0.9l-4.3,5.9h-1.2v-8h1.3v5c0,0.4,0,0.7,0,0.9l4.3-5.9h1.2V76.5z"/>
	</g>
</g>
</svg>
